<svg width="74" height="18" viewBox="0 0 74 18" fill="none" xmlns="http://www.w3.org/2000/svg">
<path d="M12.552 0.263999H18.96V0.719999H17.64V16.608H18.96V17.064H11.64V16.608H12.96V1.608H12.864L9.264 17.064H6.264L2.04 1.536H1.944V16.608H3.264V17.064H0V16.608H1.32V0.719999H0V0.263999H6.48L9.672 12.624L12.552 0.263999Z" fill="#5ABC61"/>
<path d="M26.0603 11.952C26.0603 13.424 26.3083 14.552 26.8043 15.336C27.3162 16.12 28.2283 16.512 29.5403 16.512C30.8523 16.512 31.8603 16.104 32.5643 15.288C33.2683 14.472 33.6203 13.232 33.6203 11.568V0.719999H32.0603V0.263999H35.5643V0.719999H34.2443V11.4C34.2443 13.384 33.8043 14.864 32.9243 15.84C32.0443 16.816 30.4842 17.304 28.2442 17.304C26.0202 17.304 24.3162 16.84 23.1322 15.912C21.9643 14.984 21.3802 13.392 21.3802 11.136V0.719999H20.0602V0.263999H27.6203V0.719999H26.0603V11.952Z" fill="#5ABC61"/>
<path d="M43.5047 16.8C44.3047 16.8 45.0087 16.584 45.6167 16.152C46.2407 15.72 46.5527 15.072 46.5527 14.208C46.5527 13.328 46.2167 12.656 45.5447 12.192C44.8887 11.728 43.9447 11.328 42.7127 10.992C41.4967 10.64 40.6087 10.336 40.0487 10.08C39.5047 9.824 38.9847 9.488 38.4887 9.072C37.4967 8.24 37.0007 6.952 37.0007 5.208C37.0007 3.784 37.5047 2.56 38.5127 1.536C39.5367 0.512 40.9287 0 42.6887 0C43.5367 0 44.4167 0.128 45.3287 0.383999C46.2567 0.624 46.8327 0.744 47.0567 0.744C47.2807 0.744 47.4807 0.584 47.6567 0.263999H47.9207L48.0887 5.112H47.7047C46.9367 3.72 46.1287 2.608 45.2807 1.776C44.4487 0.927999 43.5367 0.503999 42.5447 0.503999C41.5687 0.503999 40.8087 0.736 40.2647 1.2C39.7207 1.648 39.4487 2.256 39.4487 3.024C39.4487 3.776 39.7687 4.36 40.4087 4.776C41.0647 5.176 41.8647 5.504 42.8087 5.76C43.7527 6.016 44.3687 6.192 44.6567 6.288C44.9607 6.384 45.3287 6.52 45.7607 6.696C46.2087 6.856 46.5687 7.032 46.8407 7.224C47.1287 7.4 47.4247 7.632 47.7287 7.92C48.0487 8.192 48.2967 8.496 48.4727 8.832C48.9047 9.6 49.1207 10.512 49.1207 11.568C49.1207 13.296 48.5767 14.688 47.4887 15.744C46.4167 16.784 45.0007 17.304 43.2407 17.304C42.3287 17.304 41.2807 17.184 40.0967 16.944C38.9287 16.704 38.2807 16.584 38.1527 16.584C37.9287 16.584 37.7127 16.824 37.5047 17.304H37.1687L36.9287 11.592H37.3367C38.0407 12.984 38.9367 14.2 40.0247 15.24C41.1287 16.28 42.2887 16.8 43.5047 16.8Z" fill="#5ABC61"/>
<path d="M50.6953 0.263999H58.0153V0.719999H56.6953V16.608H58.0153V17.064H50.6953V16.608H52.0153V0.719999H50.6953V0.263999Z" fill="#5ABC61"/>
<path d="M68.2266 0.48C65.7466 0.48 64.5066 2.872 64.5066 7.656V9.552C64.5066 11.824 64.8346 13.608 65.4906 14.904C66.1466 16.184 67.1146 16.824 68.3946 16.824C70.1546 16.824 71.7706 15.112 73.2426 11.688H73.6746L73.5066 17.04H73.2426C73.1466 16.864 73.0586 16.744 72.9786 16.68C72.8986 16.6 72.7786 16.56 72.6186 16.56C72.4746 16.56 71.8986 16.688 70.8906 16.944C69.8826 17.184 68.8586 17.304 67.8186 17.304C65.2106 17.304 63.1866 16.6 61.7466 15.192C60.3226 13.784 59.6106 11.672 59.6106 8.856C59.6106 6.024 60.3546 3.84 61.8426 2.304C63.3466 0.768 65.3626 0 67.8906 0C68.8666 0 69.8186 0.128 70.7466 0.383999C71.6906 0.624 72.2426 0.744 72.4026 0.744C72.5626 0.744 72.6826 0.712 72.7626 0.648C72.8426 0.568 72.9306 0.44 73.0266 0.263999H73.2906L73.4826 5.472H73.0506C72.3306 3.856 71.5866 2.624 70.8186 1.776C70.0666 0.912 69.2026 0.48 68.2266 0.48Z" fill="#5ABC61"/>
</svg>
