<svg width="22" height="18" viewBox="0 0 22 18" fill="none" xmlns="http://www.w3.org/2000/svg">
<path fill-rule="evenodd" clip-rule="evenodd" d="M4.63721 2.63699C5.02768 2.24641 5.02758 1.61324 4.637 1.22278C4.24642 0.832314 3.61325 0.832409 3.22279 1.22299C1.16061 3.2858 0.00213623 6.08319 0.00213623 8.99999C0.00213623 11.9168 1.16061 14.7142 3.22279 16.777C3.61325 17.1676 4.24642 17.1677 4.637 16.7772C5.02758 16.3867 5.02768 15.7536 4.63721 15.363C2.94997 13.6752 2.00214 11.3865 2.00214 8.99999C2.00214 6.61352 2.94997 4.32474 4.63721 2.63699ZM18.7772 1.22299C18.3867 0.832409 17.7536 0.832314 17.363 1.22278C16.9724 1.61324 16.9723 2.24641 17.3628 2.63699C19.05 4.32474 19.9979 6.61352 19.9979 8.99999C19.9979 11.3865 19.05 13.6752 17.3628 15.363C16.9723 15.7536 16.9724 16.3867 17.363 16.7772C17.7536 17.1677 18.3867 17.1676 18.7772 16.777C20.8394 14.7142 21.9979 11.9168 21.9979 8.99999C21.9979 6.08319 20.8394 3.2858 18.7772 1.22299ZM7.46671 5.45749C7.85746 5.06719 7.85781 4.43402 7.4675 4.04328C7.07719 3.65254 6.44403 3.65219 6.05329 4.04249C5.40245 4.6926 4.88614 5.46462 4.53387 6.31441C4.1816 7.1642 4.00028 8.07508 4.00028 8.99499C4.00028 9.9149 4.1816 10.8258 4.53387 11.6756C4.88614 12.5254 5.40245 13.2974 6.05329 13.9475C6.44403 14.3378 7.07719 14.3374 7.4675 13.9467C7.85781 13.556 7.85746 12.9228 7.46671 12.5325C7.00183 12.0681 6.63304 11.5167 6.38142 10.9097C6.12979 10.3027 6.00028 9.65207 6.00028 8.99499C6.00028 8.33792 6.12979 7.68728 6.38142 7.08029C6.63304 6.4733 7.00183 5.92186 7.46671 5.45749ZM15.9467 4.05249C15.556 3.66219 14.9228 3.66254 14.5325 4.05328C14.1422 4.44402 14.1425 5.07719 14.5333 5.46749C14.9982 5.93186 15.367 6.4833 15.6186 7.09029C15.8702 7.69728 15.9997 8.34792 15.9997 9.00499C15.9997 9.66207 15.8702 10.3127 15.6186 10.9197C15.367 11.5267 14.9982 12.0781 14.5333 12.5425C14.1425 12.9328 14.1422 13.566 14.5325 13.9567C14.9228 14.3474 15.556 14.3478 15.9467 13.9575C16.5975 13.3074 17.1139 12.5354 17.4661 11.6856C17.8184 10.8358 17.9997 9.9249 17.9997 9.00499C17.9997 8.08509 17.8184 7.1742 17.4661 6.32441C17.1139 5.47462 16.5975 4.7026 15.9467 4.05249ZM10 9C10 8.44772 10.4477 8 11 8C11.5523 8 12 8.44772 12 9C12 9.55228 11.5523 10 11 10C10.4477 10 10 9.55228 10 9ZM11 6C9.34315 6 8 7.34315 8 9C8 10.6569 9.34315 12 11 12C12.6569 12 14 10.6569 14 9C14 7.34315 12.6569 6 11 6Z" fill="white"/>
</svg>
