<svg width="22" height="20" viewBox="0 0 22 20" fill="none" xmlns="http://www.w3.org/2000/svg">
<path fill-rule="evenodd" clip-rule="evenodd" d="M3.24654 10.2476C2.34168 9.32166 1.83333 8.06577 1.83333 6.75624C1.83333 5.44672 2.34168 4.19082 3.24654 3.26485C4.15139 2.33887 5.37864 1.81866 6.65831 1.81866C7.77342 1.81866 8.84874 2.21369 9.7056 2.92801C9.83204 3.03342 9.95373 3.14578 10.0701 3.26485L10.9998 4.21623L11.9295 3.26485C12.0455 3.14606 12.1671 3.03364 12.2939 2.92794C12.6565 2.62551 13.0609 2.3781 13.4947 2.19417C14.0801 1.94594 14.7076 1.81818 15.3412 1.81818C15.9749 1.81818 16.6023 1.94594 17.1877 2.19417C17.7732 2.44239 18.305 2.80621 18.753 3.26485C19.2012 3.72327 19.5567 4.26756 19.7993 4.86662C20.0418 5.46569 20.1667 6.10779 20.1667 6.75624C20.1667 7.4047 20.0418 8.0468 19.7993 8.64587C19.5567 9.24493 19.2012 9.78922 18.753 10.2476L10.9998 18.1818L3.24654 10.2476ZM20.0692 11.5133L12.3163 19.4471C11.971 19.8005 11.496 20 10.9998 20C10.5036 20 10.0286 19.8005 9.68323 19.4471L1.93 11.513C0.687974 10.242 0 8.5299 0 6.75624C0 4.98259 0.687974 3.27053 1.93 1.99952C3.17393 0.72656 4.87353 0.00047998 6.65831 0.00047998C8.26442 0.00047998 9.80154 0.588464 10.9997 1.63384C11.5277 1.17297 12.126 0.797131 12.774 0.522379C13.5861 0.178032 14.4586 0 15.3412 0C16.2238 0 17.0964 0.178033 17.9085 0.522379C18.7202 0.866554 19.4539 1.36936 20.0692 1.99921C20.6849 2.62894 21.1703 3.37356 21.5005 4.1891C21.8307 5.00457 22 5.87673 22 6.75624C22 7.63576 21.8307 8.50792 21.5005 9.32338C21.1703 10.1389 20.6849 10.8835 20.0692 11.5133Z" fill="white"/>
</svg>
